<svg width="61" height="64" viewBox="0 0 61 64" fill="none" xmlns="http://www.w3.org/2000/svg">
<path d="M9.67246 32.9658C9.97872 32.9658 10.3074 32.9744 10.6356 32.9638C11.1825 32.9462 11.596 32.5461 11.6477 31.9996C11.7012 31.4347 11.365 30.8886 10.8172 30.8344C10.0661 30.7602 9.30422 30.7463 8.55082 30.7869C8.00989 30.8159 7.65515 31.3293 7.67825 31.8833C7.70112 32.4341 8.09749 32.8614 8.63819 32.9052C8.97486 32.9326 9.31246 32.9452 9.67246 32.9658ZM21.9767 30.779V30.7721C19.9478 30.7721 17.9188 30.7713 15.8896 30.7726C15.46 30.7728 15.03 30.7652 14.6014 30.7887C14.0772 30.8176 13.6847 31.2437 13.6469 31.7878C13.6108 32.3096 13.9436 32.7809 14.4479 32.9049C14.589 32.9395 14.7375 32.9527 14.8825 32.9527C19.617 32.9566 24.3515 32.9584 29.0861 32.9566C29.2487 32.9566 29.417 32.9393 29.5728 32.8923C30.0163 32.7587 30.2939 32.3475 30.2928 31.8593C30.2914 31.3679 30.0158 30.9646 29.5661 30.8354C29.4015 30.7879 29.2231 30.7815 29.0511 30.7812C26.693 30.7778 24.3348 30.779 21.9767 30.779ZM34.4448 56.2093C34.6669 56.7067 34.8539 57.1684 35.0772 57.6085C35.1922 57.8354 35.3443 58.0591 35.5264 58.2241C36.3242 58.9479 37.1386 59.6498 37.9483 60.3582C38.016 60.4176 38.0917 60.4661 38.177 60.5294C38.255 60.4225 38.3175 60.3389 38.3778 60.2533C40.2511 57.5986 42.1216 54.9418 44.0019 52.2931C44.1791 52.0437 44.2555 51.7831 44.2846 51.482C44.4202 50.0684 44.5645 48.6556 44.7043 47.2426C44.7532 46.7457 44.7976 46.2482 44.8472 45.7167C44.707 45.7382 44.6093 45.7471 44.5142 45.7689C42.9168 46.1346 41.3219 46.5149 39.7204 46.8586C39.3826 46.9313 39.2431 47.0847 39.153 47.4363C38.583 49.6617 37.9822 51.8776 37.4074 54.1015C37.2546 54.6924 36.9502 55.0932 36.4145 55.303C36.0888 55.4307 35.7743 55.5915 35.4555 55.739C35.1298 55.8894 34.8045 56.0418 34.4448 56.2093ZM19.5939 14.0695C19.507 14.1954 19.4546 14.291 19.3856 14.3691C18.7477 15.0892 18.1139 15.8134 17.4627 16.519C17.2621 16.7365 17.038 16.927 16.7967 17.0891C15.3242 18.0781 13.8414 19.0495 12.3675 20.0362C12.2186 20.1359 12.0903 20.2678 11.9905 20.4234C10.2683 23.1127 8.55287 25.8075 6.83701 28.5017C6.78395 28.5848 6.74186 28.6761 6.68285 28.7857H35.8333C35.7942 28.6942 35.7739 28.6304 35.7416 28.5742C34.4679 26.3468 33.1946 24.1195 31.9128 21.8976C31.8607 21.807 31.7321 21.7291 31.6315 21.7165C31.024 21.6388 30.4147 21.5809 29.8056 21.5188C28.7329 21.4092 27.66 21.3053 26.588 21.1892C26.3833 21.1672 26.2486 21.2261 26.1321 21.4136C25.964 21.6846 25.8014 21.9592 25.6118 22.2126C25.3193 22.6033 25.0672 23.04 24.7459 23.4039C24.4471 23.7424 23.9902 23.7889 23.6334 23.5769C23.2713 23.3619 23.0753 22.9254 23.18 22.4669C23.229 22.2532 23.3374 22.0451 23.4554 21.8622C23.7742 21.3679 24.1027 20.8797 24.4483 20.4069C24.6034 20.1948 24.5965 20.0637 24.4256 19.8605C23.1638 18.3624 21.9147 16.8516 20.6611 15.3452C20.3256 14.9422 19.9882 14.5409 19.5939 14.0695ZM37.422 2.84917C37.3269 2.99738 37.2594 3.10031 37.1944 3.20473C36.2761 4.68088 35.3544 6.15431 34.4427 7.63516C34.1849 8.05405 33.8533 8.31905 33.3901 8.40862C31.6839 8.73943 29.9778 9.0737 28.275 9.4253C28.0815 9.46513 27.904 9.57004 27.7684 9.72444C26.2636 11.4374 24.7744 13.1664 23.2738 14.8835C23.1254 15.0533 23.1039 15.1562 23.2592 15.34C24.2486 16.5119 25.2237 17.6975 26.2131 18.8693C26.306 18.9795 26.4334 19.0485 26.5704 19.0633C28.2602 19.2474 29.9488 19.458 31.6429 19.5735C32.5338 19.6344 33.1381 19.9632 33.6115 20.8277C35.0227 23.4032 36.5108 25.9294 37.9623 28.4794C38.0844 28.6939 38.2116 28.7929 38.4593 28.7924C43.4227 28.7833 48.3862 28.7857 53.3497 28.7857H53.679C53.6354 28.645 53.6109 28.5524 53.5782 28.4636C51.8996 23.9136 50.2222 19.363 48.5347 14.8167C48.4654 14.6299 48.3455 14.4696 48.1909 14.3573C46.4627 13.1026 44.7203 11.8704 42.996 10.6092C42.6835 10.3806 42.4079 10.0971 42.181 9.7712C40.878 7.89966 39.5978 6.00981 38.3088 4.12738C38.0265 3.71517 37.7395 3.30667 37.422 2.84917ZM21.7862 13.513C22.1739 13.0682 22.5366 12.6532 22.898 12.2368C24.1182 10.8314 25.3529 9.44014 26.5502 8.01199C27.0102 7.46344 27.6021 7.38476 28.2011 7.26575C29.6826 6.97156 31.1654 6.68553 32.6443 6.37749C32.7918 6.34681 32.9604 6.22062 33.0459 6.08478C34.1483 4.33745 35.2373 2.58047 36.3294 0.825714C36.3807 0.743813 36.4301 0.660431 36.4836 0.580513C36.9884 -0.174637 37.7399 -0.196655 38.2674 0.535728C38.5595 0.941261 38.8383 1.35793 39.1212 1.77089C40.6497 4.00342 42.176 6.23745 43.7096 8.46602C43.8209 8.62809 43.9682 8.77407 44.1242 8.88615C45.9577 10.2057 47.8018 11.5084 49.6266 12.8423C49.8594 13.0125 50.0639 13.3059 50.17 13.591C51.9947 18.493 53.8051 23.4015 55.6056 28.3139C55.7252 28.6405 55.8665 28.759 56.195 28.7504C57.1634 28.7246 58.1329 28.732 59.1018 28.7459C59.8072 28.7558 60.2596 29.4058 60.0599 30.0894C59.9341 30.5207 59.5741 30.7961 59.0846 30.8C58.0243 30.809 56.9637 30.8129 55.9036 30.7988C55.6451 30.7956 55.488 30.8909 55.338 31.1135C53.981 33.1264 52.6176 35.1345 51.2464 37.1359C50.9701 37.539 50.9881 38.0138 50.9147 38.4621C50.6377 40.1535 50.388 41.8501 50.1247 43.5445C50.0175 44.2339 49.7023 44.5832 49.0641 44.7309C48.4038 44.8839 47.7437 45.0397 47.0807 45.1793C46.8961 45.2181 46.8213 45.3094 46.8026 45.5064C46.6733 46.862 46.5379 48.2172 46.4032 49.5723C46.3103 50.5052 46.2433 51.4427 46.1066 52.368C46.0576 52.7003 45.881 53.0383 45.6891 53.3139C44.2763 55.3438 42.845 57.3586 41.4192 59.3779C40.709 60.3834 39.9995 61.3895 39.2875 62.3935C38.747 63.1556 38.1784 63.2308 37.481 62.6244C36.3628 61.6515 35.2382 60.6863 34.1413 59.6864C33.8572 59.4276 33.6298 59.0733 33.4398 58.7227C33.1815 58.2472 32.98 57.735 32.7634 57.2337C32.6946 57.0746 32.6209 57.0387 32.467 57.1115C31.7639 57.4433 31.0535 57.7572 30.3527 58.0945C30.2276 58.1546 30.1153 58.2778 30.03 58.3991C28.8891 60.0192 27.7544 61.6446 26.6163 63.2667C26.5118 63.4159 26.4055 63.5683 26.2787 63.6943C25.7582 64.2116 24.9956 64.0545 24.7015 63.3583C24.5809 63.073 24.5107 62.7617 24.4284 62.4591C23.6084 59.4469 22.7937 56.433 21.9662 53.4231C21.9154 53.2387 21.799 53.0467 21.6629 52.923C20.187 51.58 18.7037 50.2463 17.2164 48.9186C16.8849 48.6227 16.6345 48.2766 16.4456 47.8582C15.664 46.1267 14.8663 44.4041 14.0827 42.6738C13.9875 42.464 13.861 42.3349 13.662 42.2448C11.7074 41.3607 9.76006 40.4571 7.80084 39.5849C7.25923 39.3437 6.9317 38.959 6.73614 38.3659C5.93882 35.9473 5.11428 33.5391 4.31056 31.1229C4.22959 30.88 4.1285 30.7864 3.88354 30.7901C2.92383 30.8055 1.96388 30.8025 1.00394 30.7926C0.358034 30.7862 -0.0625834 30.2844 0.00763392 29.6312C0.0638993 29.1101 0.463475 28.7469 1.01149 28.7429C1.99865 28.736 2.98604 28.732 3.9732 28.7469C4.21244 28.7504 4.3531 28.6667 4.48759 28.4549C6.45688 25.349 8.43646 22.2504 10.4069 19.1455C10.65 18.7622 10.9414 18.4542 11.3092 18.2134C12.7396 17.2767 14.1664 16.3332 15.5881 15.3811C15.826 15.2218 16.0529 15.0288 16.2489 14.813C17.0947 13.8825 17.9172 12.9266 18.7724 12.0062C18.9686 11.7952 19.2451 11.6242 19.5123 11.5482C19.9075 11.4356 20.2382 11.6606 20.5047 11.9783C20.9219 12.4758 21.3372 12.9749 21.7862 13.513Z" fill="#046380"/>
<path d="M37.422 2.84904C37.7396 3.30653 38.0265 3.71503 38.3087 4.12724C39.5978 6.00992 40.8779 7.89977 42.181 9.77106C42.4078 10.0972 42.6835 10.3805 42.9961 10.6091C44.7202 11.8705 46.4626 13.1027 48.1911 14.3574C48.3457 14.4695 48.4655 14.6298 48.5348 14.8168C50.2223 19.3628 51.8998 23.9135 53.5781 28.4635C53.6111 28.5523 53.6353 28.6448 53.6792 28.7856H53.3499C48.3864 28.7856 43.4229 28.7834 38.4594 28.7923C38.2115 28.7928 38.0843 28.6938 37.9622 28.4793C36.511 25.9293 35.0227 23.4033 33.6117 20.8276C33.138 19.9631 32.534 19.6345 31.6429 19.5736C29.9487 19.4578 28.2601 19.2475 26.5705 19.0632C26.4333 19.0483 26.3059 18.9796 26.213 18.8695C25.2238 17.6976 24.2485 16.5117 23.2593 15.3402C23.1038 15.1561 23.1255 15.0534 23.274 14.8834C24.7744 13.1663 26.2636 11.4375 27.7683 9.72454C27.9042 9.5699 28.0815 9.46524 28.2752 9.42516C29.978 9.07356 31.6838 8.73929 33.3903 8.40873C33.8532 8.31891 34.1851 8.05392 34.4429 7.63502C35.3543 6.15417 36.2763 4.68074 37.1944 3.20459C37.2596 3.10017 37.327 2.99749 37.422 2.84904Z" fill="#F2FBFF"/>
<path d="M19.5938 14.0694C19.9884 14.5408 20.3257 14.9421 20.661 15.3452C21.9147 16.8515 23.1637 18.3623 24.4255 19.8605C24.5966 20.0636 24.6033 20.195 24.4482 20.407C24.1026 20.8796 23.7744 21.3678 23.4553 21.8621C23.3373 22.0452 23.2289 22.2531 23.1802 22.4669C23.0754 22.9253 23.2714 23.3618 23.6333 23.5768C23.9903 23.7889 24.447 23.7423 24.746 23.4039C25.0671 23.0399 25.3194 22.6032 25.6117 22.2125C25.8015 21.9591 25.9639 21.6845 26.132 21.4136C26.2487 21.226 26.3834 21.1671 26.5879 21.1891C27.6599 21.3052 28.733 21.4091 29.8057 21.5187C30.4146 21.5808 31.0241 21.639 31.6314 21.7164C31.7323 21.7293 31.8606 21.807 31.913 21.8975C33.1945 24.1194 34.468 26.3468 35.7417 28.5741C35.7738 28.6303 35.7941 28.6941 35.8335 28.7856H6.68298C6.74176 28.6763 6.78385 28.5847 6.83691 28.5016C8.55278 25.8074 10.2682 23.1126 11.9907 20.4233C12.0904 20.2677 12.2187 20.1358 12.3676 20.0361C13.8415 19.0494 15.3241 18.078 16.7968 17.089C17.0379 16.9272 17.2622 16.7364 17.4628 16.5189C18.1138 15.8133 18.7478 15.0891 19.3855 14.3691C19.4548 14.2909 19.5071 14.1956 19.5938 14.0694Z" fill="#F2FBFF"/>
<path d="M34.4447 56.2093C34.8047 56.0418 35.1297 55.8896 35.4554 55.7389C35.7743 55.5917 36.0887 55.4306 36.4144 55.303C36.9501 55.0931 37.2545 54.6923 37.4073 54.1017C37.9821 51.8778 38.5829 49.6616 39.1529 47.4365C39.243 47.0847 39.3828 46.9313 39.7206 46.8588C41.3219 46.5148 42.9168 46.1348 44.5141 45.7688C44.6093 45.7471 44.7072 45.7382 44.8472 45.7166C44.7975 46.2484 44.7532 46.7457 44.7042 47.2425C44.5645 48.6558 44.4201 50.0684 44.2845 51.4822C44.2555 51.7831 44.1791 52.0436 44.0018 52.2933C42.1215 54.9417 40.2512 57.5988 38.3778 60.2532C38.3176 60.3388 38.255 60.4225 38.177 60.5294C38.0917 60.466 38.0159 60.4175 37.9482 60.3584C37.1388 59.6498 36.3241 58.9478 35.5263 58.2241C35.3443 58.0591 35.1922 57.8354 35.0771 57.6085C34.8541 57.1683 34.6668 56.7069 34.4447 56.2093Z" fill="#F2FBFF"/>
<path d="M21.9768 30.7789C24.3349 30.7789 26.693 30.7779 29.0511 30.7811C29.2231 30.7814 29.4015 30.7881 29.5662 30.8353C30.0159 30.9647 30.2915 31.368 30.2928 31.8594C30.294 32.3473 30.0163 32.7586 29.5728 32.8922C29.4171 32.9392 29.2487 32.9565 29.0861 32.9565C24.3516 32.9582 19.6171 32.9565 14.8825 32.9528C14.7375 32.9525 14.5891 32.9397 14.448 32.9048C13.9436 32.7808 13.6109 32.3095 13.647 31.7879C13.6845 31.2436 14.0772 30.8177 14.6014 30.7888C15.0298 30.765 15.4601 30.773 15.8896 30.7727C17.9186 30.7712 19.9478 30.772 21.9768 30.772V30.7789Z" fill="#F2FBFF"/>
<path d="M9.6725 32.9658C9.31249 32.9452 8.9749 32.9326 8.63822 32.9051C8.09753 32.8613 7.70115 32.434 7.67828 31.8833C7.65518 31.3293 8.00993 30.8159 8.55085 30.7869C9.30426 30.7463 10.0661 30.7602 10.8172 30.8344C11.365 30.8886 11.7013 31.4347 11.6477 31.9995C11.596 32.5461 11.1825 32.9462 10.6356 32.9638C10.3074 32.9744 9.97875 32.9658 9.6725 32.9658Z" fill="#F2FBFF"/>
</svg>
